<?xml version="1.0" encoding="UTF-8" standalone="no"?>
<!-- Generator: Adobe Illustrator 18.0.0, SVG Export Plug-In . SVG Version: 6.00 Build 0)  -->

<svg
   version="1.1"
   x="0px"
   y="0px"
   width="1364"
   height="2036"
   viewBox="0 0 1364 2036"
   enable-background="new 0 0 2800 2800"
   xml:space="preserve"
   id="svg204"
   sodipodi:docname="back.svg"
   inkscape:version="1.1.1 (3bf5ae0d25, 2021-09-20)"
   xmlns:inkscape="http://www.inkscape.org/namespaces/inkscape"
   xmlns:sodipodi="http://sodipodi.sourceforge.net/DTD/sodipodi-0.dtd"
   xmlns="http://www.w3.org/2000/svg"
   xmlns:svg="http://www.w3.org/2000/svg"><defs
   id="defs208" /><sodipodi:namedview
   id="namedview206"
   pagecolor="#ffffff"
   bordercolor="#666666"
   borderopacity="1.0"
   inkscape:pageshadow="2"
   inkscape:pageopacity="0.0"
   inkscape:pagecheckerboard="0"
   showgrid="false"
   inkscape:zoom="0.18214286"
   inkscape:cx="2366.2745"
   inkscape:cy="1133.7255"
   inkscape:window-width="1366"
   inkscape:window-height="694"
   inkscape:window-x="0"
   inkscape:window-y="0"
   inkscape:window-maximized="1"
   inkscape:current-layer="FRONT"
   width="1401px" />

<g
   id="BACK">
	<g
   opacity="0.2"
   id="g14">
		
	</g>
	
</g>
<g
   id="FRONT"
   transform="translate(-357.7582,-377.74363)">
	
	<rect
   style="fill:#1f0114;fill-opacity:1"
   id="rect27364"
   width="1402.0967"
   height="2063.2405"
   x="-1751.7527"
   y="370.845"
   transform="scale(-1,1)" />
<path
   d="m 1545.2015,470.62766 c 65.6089,0 118.803,53.19402 118.803,118.80295 0,55.6691 -38.3338,102.24977 -90.013,115.13988 0.5543,-1.60385 0.9107,-3.46509 0.9107,-5.77184 v -20.30542 c 4.8215,0 12.9001,0 14.9296,0 8.1281,0 15.3553,-3.49478 18.86,-9.98933 3.8908,-7.21728 4.5641,-18.25605 14.2068,-25.00804 2.8612,-2.24735 0.6831,-4.81152 -2.6137,-4.465 -6.0886,1.72263 -11.1378,5.90054 -15.8898,12.09808 -4.7323,6.20745 -6.9599,7.61331 -15.8008,7.61331 -4.2868,0 -10.7021,-0.24752 -16.7413,-1.19794 -3.2473,-8.24691 -8.8607,-15.84039 -15.7216,-19.42428 39.5614,-4.069 58.4411,-23.7507 58.4411,-50.47146 0,-11.50408 -4.9005,-22.63196 -13.2266,-32.00749 2.7324,-9.30623 6.1678,-28.28501 -1.0495,-35.51219 -17.8006,0 -28.5622,11.54369 -31.1462,14.66227 -8.8706,-3.03938 -18.6124,-4.76203 -28.8493,-4.76203 -10.2567,0 -20.038,1.72265 -28.9286,4.78182 -2.5542,-3.09878 -13.3256,-14.68206 -31.1658,-14.68206 -7.2471,7.23707 -3.7721,26.29505 -1.0099,35.58149 -8.2766,9.35573 -13.1475,20.4539 -13.1475,31.93819 0,26.70097 18.8501,46.37276 58.352,50.46157 -10.8705,5.67282 -18.8006,21.61223 -18.8006,33.62124 v 27.06727 c 0,1.02961 0.2278,1.77214 0.3466,2.65326 -46.2937,-16.22651 -79.5485,-60.1836 -79.5485,-112.0213 0,-65.60893 53.1939,-118.80295 118.8029,-118.80295 z"
   id="path2"
   style="fill:#ffffff;fill-opacity:1;stroke-width:9.90024" /><path
   d="m 566.74545,2098.1608 c 65.6089,0 118.803,53.194 118.803,118.8029 0,55.6691 -38.3338,102.2498 -90.013,115.1399 0.5543,-1.6038 0.9107,-3.4651 0.9107,-5.7718 v -20.3055 c 4.8215,0 12.9001,0 14.9296,0 8.1281,0 15.3553,-3.4947 18.86,-9.9893 3.8908,-7.2173 4.5641,-18.256 14.2068,-25.008 2.8612,-2.2474 0.6831,-4.8115 -2.6137,-4.465 -6.0886,1.7226 -11.1378,5.9005 -15.8898,12.098 -4.7323,6.2075 -6.9599,7.6134 -15.8008,7.6134 -4.2868,0 -10.7021,-0.2476 -16.7413,-1.198 -3.2473,-8.2469 -8.8607,-15.8404 -15.7216,-19.4243 39.5614,-4.069 58.4411,-23.7507 58.4411,-50.4714 0,-11.5041 -4.9005,-22.632 -13.2266,-32.0075 2.7324,-9.3062 6.1678,-28.285 -1.0495,-35.5122 -17.8006,0 -28.5622,11.5437 -31.1462,14.6623 -8.8706,-3.0394 -18.6124,-4.7621 -28.8493,-4.7621 -10.2567,0 -20.038,1.7227 -28.9286,4.7819 -2.5542,-3.0988 -13.3256,-14.6821 -31.1658,-14.6821 -7.2471,7.2371 -3.7721,26.2951 -1.0099,35.5815 -8.2766,9.3557 -13.1475,20.4539 -13.1475,31.9382 0,26.701 18.8501,46.3727 58.352,50.4616 -10.8705,5.6728 -18.8006,21.6122 -18.8006,33.6212 v 27.0673 c 0,1.0296 0.2278,1.7721 0.3466,2.6532 -46.2937,-16.2265 -79.5485,-60.1836 -79.5485,-112.0213 0,-65.6089 53.1939,-118.8029 118.8029,-118.8029 z"
   id="path2-4"
   style="fill:#ffffff;fill-opacity:1;stroke-width:9.90024" /><text
   xml:space="preserve"
   style="font-style:normal;font-weight:normal;font-size:125.632px;line-height:1.25;font-family:sans-serif;word-spacing:0px;fill:#000000;fill-opacity:1;stroke:none;stroke-width:1.30867"
   x="-1592.7101"
   y="1388.7568"
   id="text1894"
   transform="scale(-1,1)"><tspan
     sodipodi:role="line"
     id="tspan1892"
     x="-1592.7101"
     y="1388.7568"
     style="font-style:normal;font-variant:normal;font-weight:normal;font-stretch:normal;font-size:125.632px;font-family:Roboto;-inkscape-font-specification:Roboto;fill:#ffffff;fill-opacity:1;stroke-width:1.30867">@Serjeel-Ranjan-911</tspan></text></g>
</svg>
