<?xml version="1.0" encoding="UTF-8" standalone="no"?>
<!-- Generator: Adobe Illustrator 18.0.0, SVG Export Plug-In . SVG Version: 6.00 Build 0)  -->

<svg
   version="1.1"
   x="0px"
   y="0px"
   width="1364"
   height="2036"
   viewBox="0 0 1364 2036"
   enable-background="new 0 0 2800 2800"
   xml:space="preserve"
   id="svg204"
   sodipodi:docname="ys.svg"
   inkscape:version="1.1.1 (3bf5ae0d25, 2021-09-20)"
   xmlns:inkscape="http://www.inkscape.org/namespaces/inkscape"
   xmlns:sodipodi="http://sodipodi.sourceforge.net/DTD/sodipodi-0.dtd"
   xmlns="http://www.w3.org/2000/svg"
   xmlns:svg="http://www.w3.org/2000/svg"><defs
   id="defs208" /><sodipodi:namedview
   id="namedview206"
   pagecolor="#ffffff"
   bordercolor="#666666"
   borderopacity="1.0"
   inkscape:pageshadow="2"
   inkscape:pageopacity="0.0"
   inkscape:pagecheckerboard="0"
   showgrid="false"
   inkscape:zoom="0.18214286"
   inkscape:cx="675.29411"
   inkscape:cy="1227.0588"
   inkscape:window-width="1366"
   inkscape:window-height="694"
   inkscape:window-x="0"
   inkscape:window-y="0"
   inkscape:window-maximized="1"
   inkscape:current-layer="FRONT"
   width="1401px" />

<g
   id="BACK">
	<g
   opacity="0.2"
   id="g14">
		
	</g>
	
</g>
<g
   id="FRONT"
   transform="translate(-357.7582,-377.74363)">
	
	<rect
   style="fill:#379711;fill-opacity:1"
   id="rect27364"
   width="1402.0967"
   height="2063.2405"
   x="349.65601"
   y="370.845" />
<path
   style="fill:#ffffff;fill-opacity:1;stroke:#ffffff;stroke-width:3;stroke-miterlimit:4;stroke-dasharray:none;stroke-opacity:1"
   d="m 488.20612,715.48635 c -38.66781,-8.33485 -69.47394,-36.84704 -82.96179,-76.78411 -5.01742,-14.85638 -5.01742,-47.44323 0,-62.29961 12.50273,-37.02029 38.15412,-62.67168 75.17435,-75.17443 14.85642,-5.0174 47.4432,-5.0174 62.29963,0 40.39216,13.64157 68.59864,44.43154 76.89255,83.93525 3.60774,17.18359 3.60774,27.59438 0,44.77796 -9.00788,42.90426 -42.74909,76.64554 -85.65343,85.65339 -16.66345,3.4986 -29.155,3.46889 -45.75131,-0.10818 z m 58.8435,-16.22044 c 24.0628,-9.38645 46.59183,-31.86936 56.34779,-56.23241 3.8204,-9.54035 4.46305,-14.64962 4.46305,-35.48107 0,-20.83144 -0.64265,-25.94071 -4.46305,-35.4812 -9.72522,-24.28626 -32.06153,-46.62252 -56.34779,-56.34772 -9.54043,-3.82039 -14.64964,-4.46312 -35.48113,-4.46312 -20.83149,0 -25.94071,0.64273 -35.48114,4.46312 -24.37467,9.76066 -46.879,32.3182 -56.21486,56.34772 -6.50569,16.74515 -7.42526,46.45079 -1.99169,64.33969 9.2405,30.42231 33.21507,54.6724 64.09088,64.82741 15.7888,5.1928 49.314,4.17681 65.07794,-1.97242 z m -54.51449,-26.31699 c -10.2758,-3.35278 -17.95705,-8.2427 -17.95705,-11.43172 0,-1.32257 20.06461,-22.45498 44.58803,-46.96098 32.80606,-32.78293 45.43608,-44.23107 47.79746,-43.32489 1.76519,0.67737 5.12739,5.40339 7.47156,10.50212 6.47112,14.07549 6.08998,38.55013 -0.83015,53.30875 -11.30231,24.10439 -32.79303,38.7369 -58.68818,39.95952 -8.54243,0.40338 -17.32186,-0.40188 -22.38167,-2.0528 z m 43.72271,-15.99493 c 19.09671,-9.04824 30.39544,-27.45006 30.39544,-49.50411 0,-23.14578 0.41909,-23.32186 -39.4236,16.56454 -32.41484,32.45033 -35.36855,35.9536 -31.09313,36.87758 2.5983,0.56153 6.47637,1.40089 8.61791,1.86521 7.29898,1.58232 21.39645,-1.01449 31.50338,-5.80322 z m -84.95412,-18.57503 c -9.96919,-16.39297 -10.06416,-41.03357 -0.2351,-60.99923 7.07599,-14.3733 17.81402,-24.7385 33.01013,-31.86377 14.75855,-6.92012 39.23327,-7.30133 53.30868,-0.83018 5.09883,2.34418 9.8248,5.70641 10.50218,7.47155 0.90614,2.36144 -10.54205,14.9914 -43.32484,47.79747 -24.50603,24.52339 -45.67155,44.58804 -47.03448,44.58804 -1.36294,0 -4.1649,-2.77372 -6.22657,-6.16388 z m 76.46757,-84.09132 c -5.7613,-3.22424 -28.75411,-1.90588 -37.98625,2.17795 -20.35231,9.00277 -33.15583,28.09799 -33.29701,49.65925 -0.16528,25.24266 -1.3339,25.67508 38.70727,-14.32223 29.40322,-29.371 35.19987,-36.04658 32.57599,-37.51497 z"
   id="path876" /><path
   style="fill:#ffffff;fill-opacity:1;stroke:#ffffff;stroke-width:3;stroke-miterlimit:4;stroke-dasharray:none;stroke-opacity:1"
   d="m 1565.2186,2331.4643 c -38.6678,-8.3348 -69.4739,-36.847 -82.9618,-76.7841 -5.0174,-14.8564 -5.0174,-47.4432 0,-62.2996 12.5028,-37.0203 38.1541,-62.6717 75.1744,-75.1744 14.8564,-5.0174 47.4432,-5.0174 62.2996,0 40.3922,13.6415 68.5986,44.4315 76.8926,83.9352 3.6077,17.1836 3.6077,27.5944 0,44.778 -9.0079,42.9042 -42.7491,76.6455 -85.6535,85.6534 -16.6634,3.4986 -29.155,3.4689 -45.7513,-0.1082 z m 58.8435,-16.2204 c 24.0628,-9.3865 46.5918,-31.8694 56.3478,-56.2324 3.8204,-9.5404 4.4631,-14.6496 4.4631,-35.4811 0,-20.8314 -0.6427,-25.9407 -4.4631,-35.4812 -9.7252,-24.2863 -32.0615,-46.6225 -56.3478,-56.3477 -9.5404,-3.8204 -14.6496,-4.4631 -35.4811,-4.4631 -20.8315,0 -25.9407,0.6427 -35.4812,4.4631 -24.3746,9.7606 -46.879,32.3182 -56.2148,56.3477 -6.5057,16.7452 -7.4253,46.4508 -1.9917,64.3397 9.2405,30.4223 33.2151,54.6724 64.0909,64.8274 15.7888,5.1928 49.314,4.1768 65.0779,-1.9724 z m -54.5145,-26.317 c -10.2758,-3.3528 -17.957,-8.2427 -17.957,-11.4317 0,-1.3226 20.0646,-22.455 44.588,-46.961 32.8061,-32.7829 45.4361,-44.2311 47.7975,-43.3249 1.7652,0.6774 5.1274,5.4034 7.4715,10.5021 6.4711,14.0755 6.09,38.5502 -0.8301,53.3088 -11.3023,24.1044 -32.7931,38.7369 -58.6882,39.9595 -8.5424,0.4034 -17.3219,-0.4019 -22.3817,-2.0528 z m 43.7227,-15.9949 c 19.0967,-9.0483 30.3955,-27.4501 30.3955,-49.5041 0,-23.1458 0.4191,-23.3219 -39.4236,16.5645 -32.4149,32.4503 -35.3686,35.9536 -31.0932,36.8776 2.5983,0.5615 6.4764,1.4009 8.618,1.8652 7.2989,1.5823 21.3964,-1.0145 31.5033,-5.8032 z m -84.9541,-18.5751 c -9.9692,-16.3929 -10.0641,-41.0335 -0.2351,-60.9992 7.076,-14.3733 17.814,-24.7385 33.0101,-31.8638 14.7586,-6.9201 39.2333,-7.3013 53.3087,-0.8301 5.0989,2.3441 9.8248,5.7064 10.5022,7.4715 0.9061,2.3614 -10.542,14.9914 -43.3248,47.7975 -24.5061,24.5234 -45.6716,44.588 -47.0345,44.588 -1.363,0 -4.1649,-2.7737 -6.2266,-6.1639 z m 76.4676,-84.0913 c -5.7613,-3.2242 -28.7541,-1.9059 -37.9863,2.178 -20.3523,9.0027 -33.1558,28.098 -33.297,49.6592 -0.1653,25.2427 -1.3339,25.6751 38.7073,-14.3222 29.4032,-29.371 35.1999,-36.0466 32.576,-37.515 z"
   id="path876-0" /></g>
</svg>
