<?xml version="1.0" encoding="UTF-8" standalone="no"?>
<!-- Generator: Adobe Illustrator 18.0.0, SVG Export Plug-In . SVG Version: 6.00 Build 0)  -->

<svg
   version="1.1"
   x="0px"
   y="0px"
   width="1364"
   height="2036"
   viewBox="0 0 1364 2036"
   enable-background="new 0 0 2800 2800"
   xml:space="preserve"
   id="svg204"
   sodipodi:docname="yr.svg"
   inkscape:version="1.1.1 (3bf5ae0d25, 2021-09-20)"
   xmlns:inkscape="http://www.inkscape.org/namespaces/inkscape"
   xmlns:sodipodi="http://sodipodi.sourceforge.net/DTD/sodipodi-0.dtd"
   xmlns="http://www.w3.org/2000/svg"
   xmlns:svg="http://www.w3.org/2000/svg"><defs
   id="defs208" /><sodipodi:namedview
   id="namedview206"
   pagecolor="#ffffff"
   bordercolor="#666666"
   borderopacity="1.0"
   inkscape:pageshadow="2"
   inkscape:pageopacity="0.0"
   inkscape:pagecheckerboard="0"
   showgrid="false"
   inkscape:zoom="0.18214286"
   inkscape:cx="680.7843"
   inkscape:cy="1183.1372"
   inkscape:window-width="1366"
   inkscape:window-height="694"
   inkscape:window-x="0"
   inkscape:window-y="0"
   inkscape:window-maximized="1"
   inkscape:current-layer="FRONT"
   width="1401px" />

<g
   id="BACK">
	<g
   opacity="0.2"
   id="g14">
		
	</g>
	
</g>
<g
   id="FRONT"
   transform="translate(-357.7582,-377.74363)">
	
	<rect
   style="fill:#379711;fill-opacity:1"
   id="rect27364"
   width="1402.0967"
   height="2063.2405"
   x="349.65601"
   y="370.845" />
<path
   style="fill:#ffffff;fill-opacity:1;stroke:#ffffff;stroke-width:6.349;stroke-miterlimit:4;stroke-dasharray:none;stroke-opacity:1"
   d="m 481.51422,719.85666 c -19.91227,-1.80553 -23.56303,-2.54997 -24.02889,-4.89987 -0.3023,-1.52387 0.31976,-12.59123 1.38252,-24.59389 1.83919,-20.77385 2.10728,-21.87193 5.57543,-22.84343 2.00386,-0.5615 4.34694,-0.18674 5.20709,0.83293 0.85999,1.01967 0.99888,8.25135 0.30872,16.07032 -0.69023,7.81905 -0.95149,14.57621 -0.58039,15.01605 1.31412,1.55808 39.1282,-31.44788 44.12005,-38.51003 8.50619,-12.03441 10.08753,-26.04237 4.41885,-39.14367 -6.79406,-15.70191 -23.12605,-25.4669 -39.84327,-23.82239 -12.11567,1.19181 -18.6199,5.24662 -47.52811,29.63011 -24.90508,21.0067 -26.18705,21.93257 -28.87472,20.86321 -2.24657,-0.89388 -2.7441,-1.9299 -2.47101,-5.14566 0.33516,-3.94726 0.90158,-4.48297 28.75718,-27.20085 16.82865,-13.72479 30.29352,-23.94763 33.02167,-25.07063 8.36174,-3.44203 21.39392,-4.6517 30.20574,-2.80347 4.77361,1.00103 8.91134,1.62435 9.19507,1.38499 0.28381,-0.23936 0.36706,-4.42281 0.18508,-9.29689 -0.33722,-9.02796 3.07552,-21.71644 7.87492,-29.27832 1.46538,-2.30915 12.60385,-12.97015 24.75191,-23.69107 l 22.08756,-19.49271 -14.57399,-1.43737 c -8.01555,-0.79057 -15.12795,-2.0945 -15.80524,-2.89757 -1.64379,-1.94877 -1.23546,-5.69554 0.80848,-7.41952 0.90888,-0.76659 12.2183,-0.43578 25.1319,0.73512 19.91243,1.80557 23.56303,2.55002 24.02898,4.8998 0.30222,1.52396 -0.3142,12.52605 -1.37007,24.44907 -1.56332,17.65443 -2.42355,21.88747 -4.63456,22.80504 -1.49339,0.61972 -3.83107,0.42276 -5.19502,-0.43774 -1.97999,-1.24889 -2.2403,-4.49159 -1.29071,-16.08018 0.65428,-7.98359 0.87079,-14.89368 0.48119,-15.35558 -0.3896,-0.4619 -10.45657,7.64959 -22.37105,18.02552 l -21.66257,18.86513 -4.05838,9.27668 c -13.40249,30.63531 13.1294,62.0908 45.58591,54.04524 l 9.82816,-2.43616 28.9444,-23.84771 c 27.21784,-22.42533 29.10623,-23.78347 31.657,-22.76851 2.12212,0.84431 2.63799,1.95539 2.37053,5.1057 -0.33515,3.94724 -0.9015,4.48294 -28.7571,27.20081 -16.82881,13.72479 -30.29368,23.94779 -33.02167,25.07063 -8.36174,3.44219 -21.39407,4.65171 -30.20589,2.80347 -4.77361,-1.00118 -8.91135,-1.62451 -9.19507,-1.38515 -0.28381,0.23937 -0.36699,4.42298 -0.185,9.29706 0.3373,9.02801 -3.07561,21.71645 -7.87485,29.27837 -1.46546,2.3091 -12.62662,12.99011 -24.80277,23.7354 l -22.13836,19.53711 14.52629,1.27634 c 7.98952,0.70198 15.12477,1.98601 15.85619,2.85315 1.73078,2.05196 1.37999,5.7732 -0.71015,7.5362 -0.9088,0.7665 -12.21821,0.43578 -25.13198,-0.73508 z"
   id="path79" /><path
   style="fill:#ffffff;fill-opacity:1;stroke:#ffffff;stroke-width:6.34914;stroke-miterlimit:4;stroke-dasharray:none;stroke-opacity:1"
   d="m 1568.3355,2313.2297 c -19.9123,-1.8055 -23.563,-2.55 -24.0289,-4.8999 -0.3023,-1.5238 0.3198,-12.5912 1.3825,-24.5939 1.8392,-20.7738 2.1073,-21.8719 5.5754,-22.8434 2.0039,-0.5615 4.347,-0.1867 5.2071,0.8329 0.86,1.0197 0.9989,8.2514 0.3088,16.0704 -0.6903,7.819 -0.9515,14.5762 -0.5804,15.016 1.3141,1.5581 39.1282,-31.4479 44.12,-38.51 8.5062,-12.0344 10.0875,-26.0424 4.4189,-39.1437 -6.7941,-15.7019 -23.1261,-25.4669 -39.8433,-23.8224 -12.1157,1.1918 -18.6199,5.2466 -47.5281,29.6301 -24.9051,21.0067 -26.1871,21.9326 -28.8747,20.8632 -2.2466,-0.8938 -2.7441,-1.9299 -2.471,-5.1456 0.3351,-3.9473 0.9015,-4.483 28.7571,-27.2009 16.8287,-13.7248 30.2936,-23.9476 33.0217,-25.0706 8.3617,-3.442 21.3939,-4.6517 30.2057,-2.8035 4.7737,1.0011 8.9114,1.6244 9.1951,1.385 0.2838,-0.2393 0.3671,-4.4228 0.1851,-9.2969 -0.3372,-9.0279 3.0755,-21.7164 7.8749,-29.2783 1.4654,-2.3091 12.6039,-12.9701 24.7519,-23.6911 l 22.0876,-19.4927 -14.574,-1.4373 c -8.0156,-0.7906 -15.128,-2.0945 -15.8052,-2.8976 -1.6438,-1.9488 -1.2355,-5.6956 0.8084,-7.4195 0.9089,-0.7666 12.2183,-0.4358 25.1319,0.7351 19.9125,1.8056 23.5631,2.55 24.029,4.8998 0.3022,1.5239 -0.3142,12.526 -1.3701,24.4491 -1.5633,17.6544 -2.4235,21.8874 -4.6345,22.805 -1.4934,0.6197 -3.8311,0.4228 -5.195,-0.4377 -1.98,-1.2489 -2.2403,-4.4916 -1.2907,-16.0802 0.6542,-7.9836 0.8707,-14.8937 0.4811,-15.3556 -0.3896,-0.4619 -10.4565,7.6496 -22.371,18.0255 l -21.6626,18.8651 -4.0584,9.2767 c -13.4024,30.6353 13.1294,62.0908 45.586,54.0453 l 9.8281,-2.4362 28.9444,-23.8477 c 27.2179,-22.4253 29.1062,-23.7835 31.657,-22.7685 2.1221,0.8443 2.638,1.9554 2.3705,5.1057 -0.3351,3.9472 -0.9015,4.4829 -28.7571,27.2008 -16.8288,13.7248 -30.2936,23.9478 -33.0216,25.0706 -8.3618,3.4422 -21.3941,4.6517 -30.2059,2.8035 -4.7736,-1.0012 -8.9114,-1.6245 -9.1951,-1.3852 -0.2838,0.2394 -0.367,4.423 -0.185,9.2971 0.3373,9.028 -3.0756,21.7165 -7.8748,29.2784 -1.4655,2.3091 -12.6267,12.9901 -24.8028,23.7354 l -22.1384,19.5371 14.5263,1.2763 c 7.9895,0.702 15.1248,1.986 15.8562,2.8532 1.7308,2.0519 1.38,5.7732 -0.7101,7.5362 -0.9088,0.7665 -12.2182,0.4358 -25.132,-0.7351 z"
   id="path79-9" /></g>
</svg>
